<?xml version="1.0" encoding="iso-8859-1"?>
<!-- Generator: Adobe Illustrator 19.0.0, SVG Export Plug-In . SVG Version: 6.00 Build 0)  -->
<svg version="1.1" id="Capa_1" fill="#999" xmlns="http://www.w3.org/2000/svg" xmlns:xlink="http://www.w3.org/1999/xlink" x="0px" y="0px"
	 viewBox="0 0 512 512" style="enable-background:new 0 0 512 512;" xml:space="preserve">
<g>
	<g>
		<g>
			<path d="M144,316H64c-11.046,0-20,8.954-20,20v156c0,11.046,8.954,20,20,20h80c11.046,0,20-8.954,20-20V336
				C164,324.954,155.046,316,144,316z M124,472H84V356h40V472z"/>
			<path d="M448,156h-80c-11.046,0-20,8.954-20,20v316c0,11.046,8.954,20,20,20h80c11.046,0,20-8.954,20-20V176
				C468,164.954,459.046,156,448,156z M428,472h-40V196h40V472z"/>
			<path d="M296,236h-80c-11.046,0-20,8.954-20,20v236c0,11.046,8.954,20,20,20h80c11.046,0,20-8.954,20-20V256
				C316,244.954,307.046,236,296,236z M276,472h-40V276h40V472z"/>
			<path d="M322,0h-76c-11.046,0-20,8.954-20,20s8.954,20,20,20h27.715L104.118,209.597c-7.811,7.81-7.811,20.474,0,28.285
				c7.81,7.809,20.472,7.811,28.284,0L302,68.285V96c0,11.046,8.954,20,20,20c11.046,0,20-8.954,20-20V20.01
				C342.006,8.975,332.973,0,322,0z"/>
		</g>
	</g>
</g>
<g>
</g>
<g>
</g>
<g>
</g>
<g>
</g>
<g>
</g>
<g>
</g>
<g>
</g>
<g>
</g>
<g>
</g>
<g>
</g>
<g>
</g>
<g>
</g>
<g>
</g>
<g>
</g>
<g>
</g>
</svg>
